<svg width="21" height="20" viewBox="0 0 21 20" fill="none" xmlns="http://www.w3.org/2000/svg">
    <path d="M18.6713 8.36763H18.0001V8.33305H10.5001V11.6664H15.2097C14.5226 13.6068 12.6763 14.9997 10.5001 14.9997C7.73883 14.9997 5.50008 12.761 5.50008 9.99972C5.50008 7.23847 7.73883 4.99972 10.5001 4.99972C11.7747 4.99972 12.9342 5.48055 13.8172 6.26597L16.1742 3.90888C14.6859 2.5218 12.6951 1.66638 10.5001 1.66638C5.898 1.66638 2.16675 5.39763 2.16675 9.99972C2.16675 14.6018 5.898 18.333 10.5001 18.333C15.1022 18.333 18.8334 14.6018 18.8334 9.99972C18.8334 9.44097 18.7759 8.89555 18.6713 8.36763Z" fill="#FFC107"/>
    <path d="M3.12744 6.12096L5.86536 8.12888C6.60619 6.29471 8.40036 4.99971 10.4999 4.99971C11.7745 4.99971 12.9341 5.48055 13.817 6.26596L16.1741 3.90888C14.6858 2.5218 12.6949 1.66638 10.4999 1.66638C7.29911 1.66638 4.52327 3.47346 3.12744 6.12096Z" fill="#FF3D00"/>
    <path d="M10.5 18.3331C12.6525 18.3331 14.6084 17.5094 16.0871 16.1698L13.508 13.9873C12.6432 14.645 11.5865 15.0007 10.5 14.9998C8.33255 14.9998 6.49213 13.6177 5.7988 11.689L3.0813 13.7827C4.46047 16.4815 7.2613 18.3331 10.5 18.3331Z" fill="#4CAF50"/>
    <path d="M18.6713 8.36771H18V8.33313H10.5V11.6665H15.2096C14.8809 12.59 14.2889 13.397 13.5067 13.9877L13.5079 13.9869L16.0871 16.1694C15.9046 16.3352 18.8333 14.1665 18.8333 9.9998C18.8333 9.44105 18.7758 8.89563 18.6713 8.36771Z" fill="#1976D2"/>
</svg>
